<svg id="Layer_3" data-name="Layer 3" xmlns="http://www.w3.org/2000/svg" viewBox="0 0 130 42.008"><defs><style>.cls-1{fill:#f8b547;}</style></defs><title>logo</title><path class="cls-1" d="M1.1,41.539H0q0.231-2.619,3.078-15.39T6.619,7.036a5.5,5.5,0,0,0-.61-2.24A11.024,11.024,0,0,0,4.761,2.672L4.181,1.858l0.174-.873Q7.606,0,15.561,0a5.736,5.736,0,0,1,.755,2.734,29.412,29.412,0,0,1-.232,3.316Q23.34,0,27.928,0a6.385,6.385,0,0,1,4.878,1.978A7.764,7.764,0,0,1,34.663,7.5q0,3.55-2.467,13.527T29.728,34.964q0,1.688.581,1.687a11.094,11.094,0,0,0,2.9-1.164l0.754-.348,1.161,2.153a24.928,24.928,0,0,1-5.051,3.4A10.735,10.735,0,0,1,25.344,42a4.359,4.359,0,0,1-3.455-1.541,6.177,6.177,0,0,1-1.335-4.189q0-2.648,2.41-13.179T25.373,9.654q0-2.91-2.264-2.91-3.426,0-7.78,3.433-0.64,3.085-2.38,10.3Q9.116,36.36,9.116,40.375,6.851,41.54,1.1,41.539Z" transform="translate(0 0.004)"/><path class="cls-1" d="M54.869,17.218a9.145,9.145,0,0,0,.639-1.513,23.358,23.358,0,0,1,7.315,1.63A80.815,80.815,0,0,0,60.5,27.43a52.95,52.95,0,0,0-.871,7.506q0,2.24.464,2.24A12.012,12.012,0,0,0,62.65,36.07l0.7-.349,1.045,2.036q-0.523.467-1.365,1.164a19.369,19.369,0,0,1-3.164,1.891A9.325,9.325,0,0,1,55.682,42q-3.6,0-4.181-3.258Q47.785,42,44.8,42a6.488,6.488,0,0,1-5.052-2.327q-2.062-2.325-2.061-7.331,0-7.8,3.193-12.306T48.6,15.53A12.69,12.69,0,0,1,54.869,17.218ZM48.25,37.059a6.016,6.016,0,0,0,3.136-1.105A70.792,70.792,0,0,1,54.114,19.72a7.723,7.723,0,0,0-2.961-.757q-2.09,0-3.571,4.1A26.468,26.468,0,0,0,46.1,32.113Q46.1,37.059,48.25,37.059Z" transform="translate(0 0.004)"/><path class="cls-1" d="M67,41.481H65.9a62.009,62.009,0,0,1,1.654-10.474,87.872,87.872,0,0,0,1.655-8.786,6.878,6.878,0,0,0-1.626-4.073l-0.522-.7,0.058-.757a41.258,41.258,0,0,1,10.045-.873,6.209,6.209,0,0,1,.813,3.608q5.226-3.9,8.3-3.9,3.89,0,4.587,4.015A26.422,26.422,0,0,1,94.961,16.9a9.733,9.733,0,0,1,4.528-1.368,4.579,4.579,0,0,1,3.339,1.309,4.859,4.859,0,0,1,1.336,3.637,38.12,38.12,0,0,1-1.278,7.68,38.97,38.97,0,0,0-1.278,7.185q0,1.833.523,1.833a10.108,10.108,0,0,0,2.381-1.105l0.638-.349,1.045,2.036a16.98,16.98,0,0,1-4.093,2.881A10.03,10.03,0,0,1,97.544,42q-4.354,0-4.355-4.945a41.235,41.235,0,0,1,1.248-7.244,41.967,41.967,0,0,0,1.248-7.1q0-1.658-.987-1.659a7.71,7.71,0,0,0-3.833,1.28q-0.117,1.164-1.6,7.913a52.593,52.593,0,0,0-1.481,10.474q-1.685.756-7.9,0.756a23.572,23.572,0,0,1-.116-3.084,43,43,0,0,1,1.365-8.321,46.374,46.374,0,0,0,1.365-7.447q0-1.571-1.1-1.571a7.061,7.061,0,0,0-3.833,1.4q-0.117.524-1.161,5.12-2.089,9.195-2.09,13.092Q72.287,41.481,67,41.481Z" transform="translate(0 0.004)"/><path class="cls-1" d="M107.821,31.24q0-7.272,4.384-11.491a13.981,13.981,0,0,1,9.958-4.219,9.008,9.008,0,0,1,5.631,1.688A5.39,5.39,0,0,1,130,21.727a7.743,7.743,0,0,1-1.422,4.741,9.934,9.934,0,0,1-3.455,2.968A26.286,26.286,0,0,1,117.575,32l-1.394.175q0.406,5.47,4.471,5.469a7.286,7.286,0,0,0,2.961-.7,11.308,11.308,0,0,0,2.439-1.4l0.871-.7,1.394,1.862a9.45,9.45,0,0,1-1.858,1.688,25.707,25.707,0,0,1-2.613,1.745A14.99,14.99,0,0,1,116.472,42a7.724,7.724,0,0,1-6.329-2.851Q107.82,36.3,107.821,31.24Zm13.006-4.422a7.461,7.461,0,0,0,1.741-5.12q0-3.142-1.858-3.142-2.208,0-3.4,3.752a23.27,23.27,0,0,0-1.19,7.012A7.864,7.864,0,0,0,120.827,26.818Z" transform="translate(0 0.004)"/></svg>