<svg id="Layer_3" data-name="Layer 3" xmlns="http://www.w3.org/2000/svg" viewBox="0 0 234 48"><defs><style>.cls-1{fill:#47536b;}</style></defs><title>logo</title><path class="cls-1" d="M25.951,12.654A37.685,37.685,0,0,0,15.4,14.4V47.127H0V0.873H13.636l0.88,4.364A31.625,31.625,0,0,1,23,1.266,27.222,27.222,0,0,1,30.35,0h3.959A13.022,13.022,0,0,1,43.9,3.58,12.8,12.8,0,0,1,47.5,13.09V47.127h-15.4V15.709a2.954,2.954,0,0,0-.88-2.182,3,3,0,0,0-2.2-.873H25.951Z"/><path class="cls-1" d="M57.62,1.745A272.187,272.187,0,0,1,86.651,0a13.016,13.016,0,0,1,9.588,3.58,12.8,12.8,0,0,1,3.608,9.511V47.127H86.212l-0.88-4.364a31.551,31.551,0,0,1-8.49,3.972A27.231,27.231,0,0,1,69.5,48H66.418a13.016,13.016,0,0,1-9.589-3.578,12.8,12.8,0,0,1-3.607-9.513V30.982a12.8,12.8,0,0,1,3.607-9.513,13.022,13.022,0,0,1,9.589-3.578H84.452V14.4a2.957,2.957,0,0,0-.88-2.182,3.005,3.005,0,0,0-2.2-.873q-5.721,0-12.625.525t-11.128.784V1.745ZM73.9,35.782a37.589,37.589,0,0,0,10.557-1.745V28.8H71.7a3,3,0,0,0-2.2.873,2.945,2.945,0,0,0-.88,2.182v0.873a2.943,2.943,0,0,0,.88,2.182,2.994,2.994,0,0,0,2.2.873h2.2Z"/><path class="cls-1" d="M138.993,0q7.124,0,11,5.236a29.385,29.385,0,0,1,8.753-3.97A32.807,32.807,0,0,1,167.142,0h0.88a13.02,13.02,0,0,1,9.589,3.58,12.8,12.8,0,0,1,3.607,9.511V47.127h-15.4V15.709a2.951,2.951,0,0,0-.88-2.182,3,3,0,0,0-2.2-.873H162.3A38.8,38.8,0,0,0,152.189,14.4V47.127h-15.4V15.709a2.957,2.957,0,0,0-.88-2.182,3.005,3.005,0,0,0-2.2-.873h-0.44A38.814,38.814,0,0,0,123.158,14.4V47.127h-15.4V0.873H121.4l0.88,4.364a31.619,31.619,0,0,1,8.49-3.97A27.212,27.212,0,0,1,138.113,0h0.88Z"/><path class="cls-1" d="M232.241,46.255A303.545,303.545,0,0,1,201.45,48a13.017,13.017,0,0,1-9.589-3.578,12.8,12.8,0,0,1-3.607-9.513V13.963q0-6.546,3.739-10.254T202.33,0h17.595q6.6,0,10.337,3.709T234,13.963V30.109H203.649V33.6a2.946,2.946,0,0,0,.88,2.182,2.994,2.994,0,0,0,2.2.873q8.709,0,25.512-1.309V46.255ZM207.168,10.908q-3.519,0-3.519,3.491v4.8H218.6V14.4q0-3.489-3.519-3.491h-7.918Z"/></svg>